<svg width="64" height="32" viewBox="0 0 64 32" fill="none" xmlns="http://www.w3.org/2000/svg">
<rect x="0.5" y="1.5" width="63" height="30" fill="#1C1D1F" stroke="#D9D9D9"/>
<mask id="path-2-outside-1_1064_6" maskUnits="userSpaceOnUse" x="7" y="8" width="50" height="17" fill="black">
<rect fill="white" x="7" y="8" width="50" height="17"/>
<path d="M8 24V9H11V12H14V15H17V18H14V15H11V24H8ZM20 24V15H17V12H20V9H23V24H20ZM32 24V21H29V9H32V21H38V24H32ZM38 21V9H41V21H38ZM50 24V12H47V9H56V12H53V24H50Z"/>
</mask>
<path d="M8 24H7V25H8V24ZM8 9V8H7V9H8ZM11 9H12V8H11V9ZM11 12H10V13H11V12ZM14 12H15V11H14V12ZM14 15H13V16H14V15ZM17 15H18V14H17V15ZM17 18V19H18V18H17ZM14 18H13V19H14V18ZM14 15H15V14H14V15ZM11 15V14H10V15H11ZM11 24V25H12V24H11ZM20 24H19V25H20V24ZM20 15H21V14H20V15ZM17 15H16V16H17V15ZM17 12V11H16V12H17ZM20 12V13H21V12H20ZM20 9V8H19V9H20ZM23 9H24V8H23V9ZM23 24V25H24V24H23ZM8 24H9V9H8H7V24H8ZM8 9V10H11V9V8H8V9ZM11 9H10V12H11H12V9H11ZM11 12V13H14V12V11H11V12ZM14 12H13V15H14H15V12H14ZM14 15V16H17V15V14H14V15ZM17 15H16V18H17H18V15H17ZM17 18V17H14V18V19H17V18ZM14 18H15V15H14H13V18H14ZM14 15V14H11V15V16H14V15ZM11 15H10V24H11H12V15H11ZM11 24V23H8V24V25H11V24ZM20 24H21V15H20H19V24H20ZM20 15V14H17V15V16H20V15ZM17 15H18V12H17H16V15H17ZM17 12V13H20V12V11H17V12ZM20 12H21V9H20H19V12H20ZM20 9V10H23V9V8H20V9ZM23 9H22V24H23H24V9H23ZM23 24V23H20V24V25H23V24ZM32 24H31V25H32V24ZM32 21H33V20H32V21ZM29 21H28V22H29V21ZM29 9V8H28V9H29ZM32 9H33V8H32V9ZM32 21H31V22H32V21ZM38 21H39V20H38V21ZM38 24V25H39V24H38ZM38 21H37V22H38V21ZM38 9V8H37V9H38ZM41 9H42V8H41V9ZM41 21V22H42V21H41ZM32 24H33V21H32H31V24H32ZM32 21V20H29V21V22H32V21ZM29 21H30V9H29H28V21H29ZM29 9V10H32V9V8H29V9ZM32 9H31V21H32H33V9H32ZM32 21V22H38V21V20H32V21ZM38 21H37V24H38H39V21H38ZM38 24V23H32V24V25H38V24ZM38 21H39V9H38H37V21H38ZM38 9V10H41V9V8H38V9ZM41 9H40V21H41H42V9H41ZM41 21V20H38V21V22H41V21ZM50 24H49V25H50V24ZM50 12H51V11H50V12ZM47 12H46V13H47V12ZM47 9V8H46V9H47ZM56 9H57V8H56V9ZM56 12V13H57V12H56ZM53 12V11H52V12H53ZM53 24V25H54V24H53ZM50 24H51V12H50H49V24H50ZM50 12V11H47V12V13H50V12ZM47 12H48V9H47H46V12H47ZM47 9V10H56V9V8H47V9ZM56 9H55V12H56H57V9H56ZM56 12V11H53V12V13H56V12ZM53 12H52V24H53H54V12H53ZM53 24V23H50V24V25H53V24Z" fill="#D9D9D9" mask="url(#path-2-outside-1_1064_6)"/>
</svg>
