<svg width="50" height="17" viewBox="0 0 50 17" fill="none" xmlns="http://www.w3.org/2000/svg">
<mask id="path-1-outside-1_1059_68" maskUnits="userSpaceOnUse" x="0" y="0" width="50" height="17" fill="black">
<rect fill="white" width="50" height="17"/>
<path d="M1 16V1H4V4H7V7H10V10H7V7H4V16H1ZM13 16V7H10V4H13V1H16V16H13ZM25 16V13H22V1H25V13H31V16H25ZM31 13V1H34V13H31ZM43 16V4H40V1H49V4H46V16H43Z"/>
</mask>
<path d="M1 16V1H4V4H7V7H10V10H7V7H4V16H1ZM13 16V7H10V4H13V1H16V16H13ZM25 16V13H22V1H25V13H31V16H25ZM31 13V1H34V13H31ZM43 16V4H40V1H49V4H46V16H43Z" fill="#4599DF"/>
<path d="M1 16H0V17H1V16ZM1 1V0H0V1H1ZM4 1H5V0H4V1ZM4 4H3V5H4V4ZM7 4H8V3H7V4ZM7 7H6V8H7V7ZM10 7H11V6H10V7ZM10 10V11H11V10H10ZM7 10H6V11H7V10ZM7 7H8V6H7V7ZM4 7V6H3V7H4ZM4 16V17H5V16H4ZM13 16H12V17H13V16ZM13 7H14V6H13V7ZM10 7H9V8H10V7ZM10 4V3H9V4H10ZM13 4V5H14V4H13ZM13 1V0H12V1H13ZM16 1H17V0H16V1ZM16 16V17H17V16H16ZM1 16H2V1H1H0V16H1ZM1 1V2H4V1V0H1V1ZM4 1H3V4H4H5V1H4ZM4 4V5H7V4V3H4V4ZM7 4H6V7H7H8V4H7ZM7 7V8H10V7V6H7V7ZM10 7H9V10H10H11V7H10ZM10 10V9H7V10V11H10V10ZM7 10H8V7H7H6V10H7ZM7 7V6H4V7V8H7V7ZM4 7H3V16H4H5V7H4ZM4 16V15H1V16V17H4V16ZM13 16H14V7H13H12V16H13ZM13 7V6H10V7V8H13V7ZM10 7H11V4H10H9V7H10ZM10 4V5H13V4V3H10V4ZM13 4H14V1H13H12V4H13ZM13 1V2H16V1V0H13V1ZM16 1H15V16H16H17V1H16ZM16 16V15H13V16V17H16V16ZM25 16H24V17H25V16ZM25 13H26V12H25V13ZM22 13H21V14H22V13ZM22 1V0H21V1H22ZM25 1H26V0H25V1ZM25 13H24V14H25V13ZM31 13H32V12H31V13ZM31 16V17H32V16H31ZM31 13H30V14H31V13ZM31 1V0H30V1H31ZM34 1H35V0H34V1ZM34 13V14H35V13H34ZM25 16H26V13H25H24V16H25ZM25 13V12H22V13V14H25V13ZM22 13H23V1H22H21V13H22ZM22 1V2H25V1V0H22V1ZM25 1H24V13H25H26V1H25ZM25 13V14H31V13V12H25V13ZM31 13H30V16H31H32V13H31ZM31 16V15H25V16V17H31V16ZM31 13H32V1H31H30V13H31ZM31 1V2H34V1V0H31V1ZM34 1H33V13H34H35V1H34ZM34 13V12H31V13V14H34V13ZM43 16H42V17H43V16ZM43 4H44V3H43V4ZM40 4H39V5H40V4ZM40 1V0H39V1H40ZM49 1H50V0H49V1ZM49 4V5H50V4H49ZM46 4V3H45V4H46ZM46 16V17H47V16H46ZM43 16H44V4H43H42V16H43ZM43 4V3H40V4V5H43V4ZM40 4H41V1H40H39V4H40ZM40 1V2H49V1V0H40V1ZM49 1H48V4H49H50V1H49ZM49 4V3H46V4V5H49V4ZM46 4H45V16H46H47V4H46ZM46 16V15H43V16V17H46V16Z" fill="#D9D9D9" mask="url(#path-1-outside-1_1059_68)"/>
</svg>
